<svg width="25" height="24" viewBox="0 0 25 24" fill="none" xmlns="http://www.w3.org/2000/svg">
<path d="M18.375 18.86H17.615C16.815 18.86 16.055 19.17 15.495 19.73L13.785 21.42C13.005 22.19 11.735 22.19 10.955 21.42L9.245 19.73C8.685 19.17 7.915 18.86 7.125 18.86H6.375C4.715 18.86 3.375 17.53 3.375 15.89V4.97998C3.375 3.33998 4.715 2.01001 6.375 2.01001H18.375C20.035 2.01001 21.375 3.33998 21.375 4.97998V15.89C21.375 17.52 20.035 18.86 18.375 18.86Z" stroke="#9D9DAD" stroke-width="2" stroke-miterlimit="10" stroke-linecap="round" stroke-linejoin="round"/>
<path d="M7.375 9.16003C7.375 8.23003 8.135 7.46997 9.065 7.46997C9.995 7.46997 10.755 8.23003 10.755 9.16003C10.755 11.04 8.085 11.24 7.495 13.03C7.375 13.4 7.685 13.77 8.075 13.77H10.755" stroke="#9D9DAD" stroke-width="2" stroke-linecap="round" stroke-linejoin="round"/>
<path d="M16.415 13.76V8.05003C16.415 7.79003 16.245 7.55997 15.995 7.48997C15.745 7.41997 15.475 7.51997 15.335 7.73997C14.615 8.89997 13.835 10.22 13.155 11.38C13.045 11.57 13.045 11.82 13.155 12.01C13.265 12.2 13.475 12.3199 13.705 12.3199H17.375" stroke="#9D9DAD" stroke-width="2" stroke-linecap="round" stroke-linejoin="round"/>
</svg>
