<svg width="25" height="24" viewBox="0 0 25 24" fill="none" xmlns="http://www.w3.org/2000/svg">
<path d="M17.325 18.98H7.92495C7.50495 18.98 7.03495 18.65 6.89495 18.25L2.75495 6.66999C2.16496 5.00999 2.85496 4.49999 4.27496 5.51999L8.17495 8.30999C8.82495 8.75999 9.56495 8.52999 9.84495 7.79999L11.605 3.10999C12.165 1.60999 13.095 1.60999 13.655 3.10999L15.415 7.79999C15.695 8.52999 16.435 8.75999 17.075 8.30999L20.735 5.69999C22.295 4.57999 23.045 5.14999 22.405 6.95999L18.365 18.27C18.215 18.65 17.745 18.98 17.325 18.98Z" stroke="black" stroke-width="2" stroke-linecap="round" stroke-linejoin="round"/>
<path d="M7.125 22H18.125" stroke="black" stroke-width="2" stroke-linecap="round" stroke-linejoin="round"/>
<path d="M10.125 14H15.125" stroke="black" stroke-width="2" stroke-linecap="round" stroke-linejoin="round"/>
</svg>
