<svg width="25" height="24" viewBox="0 0 25 24" fill="none" xmlns="http://www.w3.org/2000/svg">
<path d="M9.17188 14.3298C9.17188 15.6198 10.1619 16.6598 11.3919 16.6598H13.9019C14.9719 16.6598 15.8419 15.7498 15.8419 14.6298C15.8419 13.4098 15.3119 12.9798 14.5219 12.6998L10.4919 11.2998C9.70187 11.0198 9.17188 10.5898 9.17188 9.36984C9.17188 8.24984 10.0419 7.33984 11.1119 7.33984H13.6219C14.8519 7.33984 15.8419 8.37984 15.8419 9.66984" stroke="#292D32" stroke-width="2" stroke-linecap="round" stroke-linejoin="round"/>
<path d="M12.5 6V18" stroke="#292D32" stroke-width="2" stroke-linecap="round" stroke-linejoin="round"/>
<path d="M12.5 22C18.0228 22 22.5 17.5228 22.5 12C22.5 6.47715 18.0228 2 12.5 2C6.97715 2 2.5 6.47715 2.5 12C2.5 17.5228 6.97715 22 12.5 22Z" stroke="#292D32" stroke-width="2" stroke-linecap="round" stroke-linejoin="round"/>
</svg>
