<svg width="44" height="44" viewBox="0 0 44 44" fill="none" xmlns="http://www.w3.org/2000/svg">
<circle cx="22" cy="22" r="21.5" stroke="#EDEEF0"/>
<path d="M15 20C13.9 20 13 20.9 13 22C13 23.1 13.9 24 15 24C16.1 24 17 23.1 17 22C17 20.9 16.1 20 15 20Z" stroke="#292D32" stroke-width="2"/>
<path d="M29 20C27.9 20 27 20.9 27 22C27 23.1 27.9 24 29 24C30.1 24 31 23.1 31 22C31 20.9 30.1 20 29 20Z" stroke="#292D32" stroke-width="2"/>
<path d="M22 20C20.9 20 20 20.9 20 22C20 23.1 20.9 24 22 24C23.1 24 24 23.1 24 22C24 20.9 23.1 20 22 20Z" stroke="#292D32" stroke-width="2"/>
</svg>
