<svg width="51" height="50" viewBox="0 0 51 50" fill="none" xmlns="http://www.w3.org/2000/svg">
<circle cx="25.5" cy="25" r="25" fill="#FCCF2F"/>
<path d="M35.2 19V31C35.2 35.8 34 37 29.2 37H22C17.2 37 16 35.8 16 31V19C16 14.2 17.2 13 22 13H29.2C34 13 35.2 14.2 35.2 19Z" stroke="#292D32" stroke-width="2" stroke-linecap="round" stroke-linejoin="round"/>
<path d="M28 17.2H23.2" stroke="#292D32" stroke-width="2" stroke-linecap="round" stroke-linejoin="round"/>
<path d="M25.6 33.52C26.6272 33.52 27.46 32.6873 27.46 31.66C27.46 30.6328 26.6272 29.8 25.6 29.8C24.5727 29.8 23.74 30.6328 23.74 31.66C23.74 32.6873 24.5727 33.52 25.6 33.52Z" stroke="#292D32" stroke-width="2" stroke-linecap="round" stroke-linejoin="round"/>
</svg>
