<svg width="25" height="24" viewBox="0 0 25 24" fill="none" xmlns="http://www.w3.org/2000/svg">
<path d="M19.625 12.5C19.625 11.12 20.745 10 22.125 10V9C22.125 5 21.125 4 17.125 4H7.125C3.125 4 2.125 5 2.125 9V9.5C3.505 9.5 4.625 10.62 4.625 12C4.625 13.38 3.505 14.5 2.125 14.5V15C2.125 19 3.125 20 7.125 20H17.125C21.125 20 22.125 19 22.125 15C20.745 15 19.625 13.88 19.625 12.5Z" stroke="#9D9DAD" stroke-width="2" stroke-linecap="round" stroke-linejoin="round"/>
<path d="M9.125 14.75L15.125 8.75" stroke="#9D9DAD" stroke-width="2" stroke-linecap="round" stroke-linejoin="round"/>
<path d="M15.1195 14.75H15.1285" stroke="#9D9DAD" stroke-width="2" stroke-linecap="round" stroke-linejoin="round"/>
<path d="M9.11951 9.25H9.12849" stroke="#9D9DAD" stroke-width="2" stroke-linecap="round" stroke-linejoin="round"/>
</svg>
