<svg width="20" height="21" viewBox="0 0 20 21" fill="none" xmlns="http://www.w3.org/2000/svg">
<path d="M17.9667 9.45L16.8334 8.13333C16.6167 7.88333 16.4417 7.41667 16.4417 7.08333V5.66666C16.4417 4.78333 15.7167 4.05833 14.8334 4.05833H13.4167C13.0917 4.05833 12.6167 3.88333 12.3667 3.66666L11.0501 2.53333C10.4751 2.04166 9.5334 2.04166 8.95007 2.53333L7.64173 3.675C7.39173 3.88333 6.91673 4.05833 6.59173 4.05833H5.15006C4.26673 4.05833 3.54173 4.78333 3.54173 5.66666V7.09166C3.54173 7.41666 3.36673 7.88333 3.1584 8.13333L2.0334 9.45833C1.55007 10.0333 1.55007 10.9667 2.0334 11.5417L3.1584 12.8667C3.36673 13.1167 3.54173 13.5833 3.54173 13.9083V15.3333C3.54173 16.2167 4.26673 16.9417 5.15006 16.9417H6.59173C6.91673 16.9417 7.39173 17.1167 7.64173 17.3333L8.9584 18.4667C9.5334 18.9583 10.4751 18.9583 11.0584 18.4667L12.3751 17.3333C12.6251 17.1167 13.0917 16.9417 13.4251 16.9417H14.8417C15.7251 16.9417 16.4501 16.2167 16.4501 15.3333V13.9167C16.4501 13.5917 16.6251 13.1167 16.8417 12.8667L17.9751 11.55C18.4584 10.975 18.4584 10.025 17.9667 9.45ZM13.4667 8.925L9.44173 12.95C9.32507 13.0667 9.16673 13.1333 9.00007 13.1333C8.8334 13.1333 8.67507 13.0667 8.5584 12.95L6.54173 10.9333C6.30007 10.6917 6.30007 10.2917 6.54173 10.05C6.7834 9.80833 7.1834 9.80833 7.42507 10.05L9.00007 11.625L12.5834 8.04167C12.8251 7.8 13.2251 7.8 13.4667 8.04167C13.7084 8.28333 13.7084 8.68333 13.4667 8.925Z" fill="#33C01C"/>
</svg>
