<svg width="101" height="35" viewBox="0 0 101 35" fill="none" xmlns="http://www.w3.org/2000/svg">
<g clip-path="url(#clip0_0_332)">
<path d="M23.5996 18.2498C23.5581 13.9038 27.1572 11.8158 27.3191 11.7163C25.2933 8.76239 22.1467 8.35638 21.0259 8.31081C18.3483 8.03738 15.7995 9.88514 14.4379 9.88514C13.0763 9.88514 10.98 8.3481 8.75906 8.39367C5.83662 8.4351 3.1425 10.0881 1.63561 12.6982C-1.39476 17.9432 0.86349 25.732 3.82329 29.9951C5.27206 32.079 6.99065 34.4281 9.25721 34.3411C11.4407 34.2541 12.2627 32.9325 14.8945 32.9325C17.5264 32.9325 18.2695 34.3411 20.5734 34.2997C22.9188 34.2541 24.4049 32.1702 25.8412 30.078C27.4934 27.6543 28.1784 25.3136 28.2199 25.1893C28.1659 25.1686 23.6494 23.4409 23.5996 18.2498Z" fill="black"/>
<path d="M19.2699 5.48529C20.4737 4.03111 21.2832 2.01348 21.0632 0C19.3322 0.0704305 17.2358 1.15175 15.9946 2.60593C14.8821 3.89025 13.9065 5.94516 14.1722 7.91722C16.0942 8.06636 18.0702 6.93533 19.2699 5.48529ZM38.7805 22.5212L36.7879 28.5492H34.2267L40.7482 9.39211H43.737L50.2835 28.5492H47.635L45.5843 22.5212H38.7805ZM45.0737 20.5864L43.1974 15.0721C42.7698 13.8209 42.4875 12.6858 42.2011 11.5755H42.1471C41.8607 12.7106 41.5494 13.8748 41.1799 15.0431L39.3036 20.5823L45.0737 20.5864ZM52.2262 19.2814C52.2262 17.5206 52.1723 16.0954 52.11 14.7904H54.36L54.4762 17.1519H54.5302C55.5555 15.474 57.1786 14.4797 59.4286 14.4797C62.762 14.4797 65.2652 17.2928 65.2652 21.473C65.2652 26.4197 62.2472 28.8599 59.001 28.8599C57.1786 28.8599 55.5846 28.0645 54.7585 26.7014H54.7045V34.1754H52.2262V19.2814ZM54.7004 22.9479C54.7004 23.3208 54.7543 23.6564 54.8166 23.9712C55.2732 25.703 56.7801 26.9003 58.5776 26.9003C61.226 26.9003 62.7661 24.7418 62.7661 21.5849C62.7661 18.8257 61.3132 16.4725 58.6648 16.4725C56.9586 16.4725 55.3645 17.6946 54.8747 19.5714C54.7875 19.8821 54.7045 20.255 54.7045 20.5947L54.7004 22.9479ZM67.8555 19.2814C67.8555 17.5206 67.8015 16.0954 67.7393 14.7904H69.9892L70.1054 17.1519H70.1594C71.1848 15.474 72.8079 14.4797 75.0578 14.4797C78.3912 14.4797 80.8944 17.2928 80.8944 21.473C80.8944 26.4197 77.8765 28.8599 74.6303 28.8599C72.8079 28.8599 71.2138 28.0645 70.3877 26.7014H70.3338V34.1754H67.8555V19.2814ZM70.3338 22.9479C70.3338 23.3208 70.3877 23.6564 70.45 23.9712C70.9066 25.703 72.4135 26.9003 74.211 26.9003C76.8594 26.9003 78.3995 24.7418 78.3995 21.5849C78.3995 18.8257 76.9466 16.4725 74.2982 16.4725C72.592 16.4725 70.998 17.6946 70.5081 19.5714C70.4209 19.8821 70.3379 20.255 70.3379 20.5947L70.3338 22.9479ZM83.4889 8.3688H85.9962V28.5451H83.4889V8.3688ZM91.0358 22.1235C91.0898 25.5041 93.2567 26.9003 95.7598 26.9003C97.5532 26.9003 98.6366 26.5896 99.5748 26.1919L100.002 27.9816C99.1223 28.3793 97.6113 28.8351 95.4194 28.8351C91.1769 28.8351 88.6405 26.051 88.6405 21.8997C88.6405 17.7485 91.0898 14.4797 95.104 14.4797C99.6039 14.4797 100.799 18.4279 100.799 20.9593C100.799 21.473 100.745 21.8666 100.712 22.1235H91.0358ZM98.3834 20.3337C98.4125 18.7428 97.7275 16.2694 94.9089 16.2694C92.3725 16.2694 91.2641 18.6019 91.0648 20.3337H98.3834Z" fill="black"/>
</g>
<defs>
<clipPath id="clip0_0_332">
<rect width="100.604" height="34.3452" fill="white" transform="translate(0.19928)"/>
</clipPath>
</defs>
</svg>
