<svg width="71" height="50" viewBox="0 0 71 50" fill="none" xmlns="http://www.w3.org/2000/svg">
<g clip-path="url(#clip0_20_2643)">
<path d="M38.957 24.4494C43.3786 22.4439 44.0325 15.8994 37.7432 15.8994H30.4597L27.768 21.1772H29.0347L25.8152 33.7912H34.2597C40.4204 33.8439 43.1911 26.5895 38.957 24.4494ZM34.2597 29.1996H32.1486L32.9402 26.3496H34.9457C37.3208 26.8245 35.8431 29.305 34.2597 29.1996ZM35.5264 23.1299H33.732L34.2597 20.6494H36.2652C38.2031 21.1244 36.5293 23.2356 35.5264 23.1299Z" fill="#005FAF" stroke="#005FAF" stroke-width="0.151336"/>
<path d="M56.247 22.6399L59.012 17.7587L55.2706 15.8071L54.7825 16.4094C52.7641 15.341 42.195 16.8162 41.5332 27.2422C41.9288 35.9883 51.7291 34.415 52.6904 33.8601L55.3859 28.2881C52.746 30.0269 47.3406 30.8617 47.1119 25.6383C47.586 21.331 52.6715 19.7225 56.247 22.6399ZM70.0449 15.8994H61.5445L58.8425 21.0193H60.2306L53.8245 33.7912H60.0252L61.2983 30.7106H65.1045L65.1994 33.7912H70.9073L70.0449 15.8994ZM63.0227 26.563L65.1043 21.5942L65.1992 26.563H63.0227Z" fill="#005FAF" stroke="#005FAF" stroke-width="0.151336"/>
<path d="M16.9616 32.9371L17.2918 32.8413L16.9297 32.3408L16.9616 32.9371ZM11.5404 32.8519L11.4766 33.2992C11.6409 33.2832 11.8433 33.4248 11.9239 33.1075C11.9179 32.8602 11.7296 32.8466 11.5404 32.8519ZM14.1713 32.8413C14.1439 32.7195 14.0422 32.6297 13.7878 32.7136L13.873 33.1714C14.082 33.125 14.1894 33.0014 14.1713 32.8413ZM8.22816 32.4666L8.12646 32.8734C8.28991 32.8802 8.48135 33.0128 8.58985 32.7717C8.59712 32.6206 8.60332 32.4702 8.22816 32.4666ZM13.9476 33.5123L14.0222 33.981C14.1967 33.9854 14.3559 33.8805 14.3097 33.6615C14.2652 33.4509 14.0883 33.4842 13.9476 33.5123Z" fill="#005FAF"/>
<path d="M20.8738 16.1407C15.234 13.2675 8.49849 13.3475 3.12486 16.0154C0.353904 20.8934 0.265675 27.7184 3.12486 33.7634C9.04496 36.7592 15.5927 36.5619 20.9154 33.8887C23.417 28.7565 23.8302 22.5807 20.8738 16.1407ZM11.3487 30.7064L11.0144 30.7102C10.9317 29.7864 10.7109 29.0101 10.2372 28.4159C8.06506 25.6921 3.62487 27.7428 4.76579 23.1136C5.35903 20.747 12.1257 19.3512 11.3487 30.7064ZM4.77381 26.1343C5.2481 27.0996 8.21958 27.2578 9.25108 27.9968C10.8873 29.1688 10.6525 30.7107 10.6525 30.7107H10.2665C9.50684 28.3821 7.37467 30.2258 5.66685 29.5986C4.59463 29.2173 3.81616 27.5642 4.77381 26.1343ZM10.1877 33.7254L10.3475 32.458L10.635 32.4793L10.5072 33.8745C10.3782 34.489 9.46189 34.4069 9.34627 33.8212L9.49534 32.3728L9.83615 32.4262L9.68708 33.6402C9.706 34.042 10.109 34.0179 10.1877 33.7254ZM8.65754 34.0715L8.32975 33.9924C8.36819 33.7215 8.68948 33.1703 8.05447 33.1703L7.87771 33.8907L7.51602 33.8229L7.90026 32.0936C8.83945 32.1959 8.92162 32.4572 8.94024 32.7378C8.90316 32.9554 8.8452 33.1074 8.65769 33.1446C8.87713 33.3437 8.66027 33.7611 8.65754 34.0715ZM6.57562 32.1346C6.48527 32.2544 6.30442 32.6732 6.27824 33.0069C6.2504 33.3605 6.59015 33.2861 6.67474 33.2448C6.743 33.2116 6.79369 32.9276 6.79369 32.9276L6.55579 32.8483L6.63509 32.6105L7.17052 32.7889L6.91279 33.6812L6.69472 33.6216L6.71454 33.4828C6.44759 33.6045 5.95892 33.5132 5.90157 33.2053C5.84421 32.9578 6.01795 32.2077 6.29807 31.8572C6.57032 31.5164 7.23363 31.8495 7.24982 32.0554C7.26586 32.2606 7.1849 32.4916 7.1849 32.4916L6.93519 32.4445C6.93519 32.4445 6.95048 32.3704 6.97227 32.2535C6.99527 32.1297 6.67247 32.0058 6.57562 32.1346ZM11.4445 33.5868L11.3807 34.3538L11.1145 34.3432L11.2103 32.5218C11.8751 32.5356 12.2562 32.6276 12.2434 33.0971C12.2038 33.7384 11.6844 33.5942 11.4445 33.5868ZM12.1072 30.7105H11.6619C11.6224 29.1333 11.9256 26.2484 11.0969 24.1253C10.469 22.5158 8.88001 21.7918 8.52785 20.4917C7.97033 18.4338 8.9192 16.2072 12.1072 16.0358C14.8711 16.3195 15.7202 18.4532 15.2488 20.4398C14.4383 22.4261 13.6276 22.1407 12.6183 24.1192C11.794 26.2402 12.1078 29.0189 12.1072 30.7105ZM17.0467 33.6295L16.7378 33.736L16.6419 31.9041L17.004 31.8083L17.8987 33.3206L17.6537 33.4804L17.3554 33.0545L17.0146 33.1823L17.0467 33.6295ZM13.4432 30.7105H13.087C13.3806 26.6599 18.4708 27.5399 18.936 26.1343C19.7405 27.5278 19.4513 28.7027 18.6112 29.305C16.5237 30.8024 14.522 28.197 13.4432 30.7105ZM15.3321 32.7563L15.4919 33.5977C15.5913 33.7915 15.6588 33.7557 15.8113 33.7362C15.9882 33.6081 15.9513 33.4834 15.9179 33.3207L16.2268 33.2782C16.3073 33.8878 16.0175 33.95 15.8007 33.9918C15.336 34.0251 15.2449 33.9346 15.1191 33.3315C15.0459 32.8153 14.9194 32.2702 15.3534 32.1706C16.0659 32.0618 16.0238 32.3825 16.0883 32.6072L15.7794 32.6606C15.7301 32.4675 15.6591 32.3909 15.5025 32.4052C15.3597 32.4707 15.3012 32.5768 15.3321 32.7563ZM14.6824 33.6295C14.6972 33.8948 14.6072 34.0709 14.4374 34.1301L13.7131 34.2791L13.4255 32.5218C13.5741 32.4976 14.3028 32.2307 14.4799 32.7137C14.5672 33.0087 14.4767 33.1145 14.3733 33.2461C14.5693 33.3091 14.6355 33.4616 14.6824 33.6295ZM12.8225 24.8107C14.436 20.2676 18.1281 21.0704 18.947 23.1138C20.0689 27.2139 16.4565 26.0895 14.1426 27.7708C13.268 28.5314 12.8078 29.404 12.801 30.7268H12.4045C12.3807 28.0624 12.3376 26.1757 12.8225 24.8107Z" fill="#005FAF"/>
</g>
<defs>
<clipPath id="clip0_20_2643">
<rect width="70" height="21.952" fill="white" transform="translate(1 14)"/>
</clipPath>
</defs>
</svg>
