<svg width="102" height="22" viewBox="0 0 102 22" fill="none" xmlns="http://www.w3.org/2000/svg">
    <path
        d="M55.422 7.22046H57.6717V13.4409C57.6717 16.5984 55.921 18.4094 52.8712 18.4094C49.8531 18.4094 48.1183 16.6299 48.1183 13.5275V7.22833H50.368V13.4567C50.368 15.2992 51.279 16.2834 52.9029 16.2834C54.5269 16.2834 55.422 15.3228 55.422 13.5354V7.22046ZM42.7475 11.6614H37.6618V7.22046H35.4121V18.244H37.6618V13.7637H42.7396V18.244H44.9893V7.22046H42.7396V11.6614H42.7475ZM99.0857 7.22046V18.2283H101.304V7.22046H99.0857ZM90.2531 13.496H94.3486V11.4882H90.2531V9.22833H96.1943V7.22833H88.0351V18.2362H96.4082V16.2283H90.2531V13.496ZM81.4285 14.7952L78.9094 7.21259H77.0716L74.5526 14.7952L72.1048 7.22046H69.7125L73.5782 18.2362H75.4398L77.9588 11L80.4779 18.2362H82.3553L86.2131 7.22046H83.8763L81.4285 14.7952ZM65.7121 7.28345L70.5522 18.2362H68.1916L67.1934 15.9448H62.1157L62.0444 16.1023L61.1097 18.2362H58.8124L63.7 7.22046H65.6646L65.7121 7.28345ZM66.2508 13.6929L64.6506 9.99998L63.0584 13.6929L62.9475 13.9448H66.3538L66.2508 13.6929Z"
        fill="#24272A" />
    <path
        d="M13.2632 17.0708C13.2949 17.0472 13.3028 16.9999 13.287 16.9606C11.1027 12.2939 8.3777 7.89671 5.16738 3.85825C5.16738 3.85825 2.61664 6.2677 2.79883 8.68501C2.84151 9.24232 2.99431 9.7858 3.24849 10.2844C3.50268 10.7829 3.85325 11.2268 4.28017 11.5905C6.50613 13.748 11.8928 16.4724 13.1444 17.0944C13.184 17.1102 13.2315 17.1023 13.2632 17.0708ZM12.4315 18.9133C12.4156 18.8661 12.3681 18.8346 12.3126 18.8346L3.34542 19.1417C4.31978 20.8661 5.95954 22.2046 7.66268 21.7952C8.84299 21.5039 11.5046 19.6535 12.3839 19.0236C12.4552 18.9684 12.4315 18.9212 12.4315 18.9133ZM12.5661 18.1181C12.6137 18.0472 12.5344 17.9842 12.5344 17.9842C8.59742 15.3385 0.961031 11.2756 0.961031 11.2756C0.70792 12.0467 0.637113 12.8655 0.754115 13.6682C0.871116 14.471 1.17277 15.2361 1.63564 15.9042C2.09851 16.5722 2.71012 17.1252 3.42294 17.5201C4.13577 17.915 4.93059 18.1411 5.74566 18.181C5.88032 18.2047 11.0769 18.181 12.4711 18.1732C12.5107 18.1653 12.5424 18.1495 12.5661 18.1181ZM13.1602 0.00787399C12.7721 0.0393699 11.7185 0.283464 11.7185 0.283464C9.34205 0.889761 8.77962 3.03936 8.77962 3.03936C8.34393 4.38581 8.78754 5.874 8.78754 5.874C9.57969 9.37005 13.4771 15.1259 14.3168 16.3307C14.3722 16.3936 14.4198 16.37 14.4198 16.37C14.4673 16.3543 14.5069 16.3149 14.5069 16.2598C15.806 3.40944 13.1602 0.00787399 13.1602 0.00787399ZM16.1308 16.3543C16.1784 16.37 16.2338 16.3543 16.2576 16.307C17.121 15.0708 20.9947 9.34643 21.7868 5.86612C21.7868 5.86612 22.2146 4.18109 21.8027 3.03149C21.8027 3.03149 21.2165 0.850391 18.84 0.27559C18.84 0.27559 18.1588 0.102362 17.43 0C17.43 0 14.7683 3.40156 16.0675 16.2519C16.0595 16.2992 16.0912 16.3385 16.1308 16.3543ZM18.2538 18.8425C18.2327 18.8467 18.2127 18.8552 18.195 18.8673C18.1773 18.8795 18.1622 18.8952 18.1508 18.9133C18.1429 18.9606 18.1508 18.9999 18.1825 19.0314C19.038 19.6456 21.6442 21.4566 22.8958 21.8031C22.8958 21.8031 25.2169 22.5905 27.2289 19.1495L18.2538 18.8425ZM29.6213 11.2598C29.6213 11.2598 22.0007 15.3307 18.0558 17.9763C18.0162 18.0078 17.9924 18.0551 18.0082 18.1023C18.0082 18.1023 18.0478 18.1732 18.1033 18.1732C19.5133 18.1732 24.8525 18.181 24.9951 18.1574C25.5258 18.1181 26.0486 17.9999 26.5398 17.8031C26.5398 17.8031 28.4409 17.2047 29.4232 15.0551C29.4232 15.0551 30.3025 13.307 29.6213 11.2598ZM17.3349 17.0708C17.3666 17.0944 17.4141 17.1023 17.4537 17.0787C18.737 16.4409 24.0841 13.7401 26.2942 11.5905C26.2942 11.5905 27.6963 10.4724 27.7676 8.66926C27.926 6.17321 25.3991 3.85825 25.3991 3.85825C25.3991 3.85825 20.7253 9.48816 17.2953 16.9291C17.2898 16.9541 17.2905 16.9801 17.2974 17.0048C17.3043 17.0295 17.3172 17.0522 17.3349 17.0708Z"
        fill="#CE0E2D" />
</svg>