<svg width="118" height="40" viewBox="0 0 118 40" fill="none" xmlns="http://www.w3.org/2000/svg">
<path d="M21.956 3.42213L18.5146 2.5L15.6145 13.3234L12.9962 3.55196L9.55476 4.47409L12.3836 15.0314L5.33757 7.98536L2.81828 10.5047L10.5469 18.2334L0.922126 15.6544L0 19.0958L10.5163 21.9136C10.3959 21.3943 10.3322 20.8532 10.3322 20.2972C10.3322 16.3618 13.5225 13.1716 17.4579 13.1716C21.3933 13.1716 24.5835 16.3618 24.5835 20.2972C24.5835 20.8496 24.5206 21.3874 24.4017 21.9036L33.9591 24.4645L34.8811 21.0231L24.323 18.1941L33.9485 15.6149L33.0263 12.1735L22.4686 15.0024L29.5147 7.95643L26.9954 5.43714L19.3739 13.0586L21.956 3.42213Z" fill="black"/>
<path d="M24.3923 21.9437C24.0972 23.1911 23.4743 24.3117 22.6196 25.2096L29.5435 32.1335L32.0628 29.6142L24.3923 21.9437Z" fill="black"/>
<path d="M22.5496 25.282C21.6846 26.1655 20.5915 26.8248 19.3656 27.1646L21.8851 36.5673L25.3265 35.6452L22.5496 25.282Z" fill="black"/>
<path d="M19.2371 27.1989C18.6683 27.3452 18.0722 27.4229 17.4579 27.4229C16.7997 27.4229 16.1623 27.3336 15.5573 27.1666L13.0355 36.5779L16.4769 37.5L19.2371 27.1989Z" fill="black"/>
<path d="M15.4357 27.1319C14.2286 26.7752 13.1549 26.1075 12.3075 25.2215L5.36658 32.1624L7.88587 34.6817L15.4357 27.1319Z" fill="black"/>
<path d="M12.2495 25.1601C11.4167 24.2685 10.8101 23.1628 10.5213 21.9347L0.932739 24.504L1.85486 27.9453L12.2495 25.1601Z" fill="black"/>
<path d="M60.0903 24.196C60.0903 25.2187 59.8303 26.146 59.3103 26.978C58.7903 27.81 58.0276 28.4687 57.0223 28.954C56.0169 29.4393 54.8123 29.682 53.4083 29.682C51.2763 29.682 49.5169 29.1707 48.1303 28.148C46.7609 27.1253 46.0156 25.6693 45.8943 23.78H51.3283C51.3803 24.4213 51.5796 24.898 51.9263 25.21C52.2729 25.522 52.6976 25.678 53.2003 25.678C53.6509 25.678 53.9976 25.5653 54.2403 25.34C54.5003 25.1147 54.6303 24.794 54.6303 24.378C54.6303 23.8233 54.3789 23.3987 53.8763 23.104C53.3736 22.792 52.5763 22.454 51.4843 22.09C50.3229 21.6913 49.3609 21.3013 48.5983 20.92C47.8529 20.5387 47.2029 19.9667 46.6483 19.204C46.1109 18.4413 45.8423 17.462 45.8423 16.266C45.8423 15.122 46.1369 14.1427 46.7263 13.328C47.3156 12.496 48.1216 11.872 49.1443 11.456C50.1669 11.0227 51.3283 10.806 52.6283 10.806C54.7429 10.806 56.4243 11.3087 57.6723 12.314C58.9376 13.302 59.6309 14.6973 59.7523 16.5H54.2663C54.1969 15.928 54.0149 15.5033 53.7203 15.226C53.4429 14.9487 53.0703 14.81 52.6023 14.81C52.2036 14.81 51.8916 14.914 51.6663 15.122C51.4409 15.33 51.3283 15.642 51.3283 16.058C51.3283 16.578 51.5709 16.9853 52.0563 17.28C52.5589 17.5747 53.3389 17.904 54.3963 18.268C55.5576 18.684 56.5196 19.0913 57.2823 19.49C58.0449 19.8887 58.7036 20.4693 59.2583 21.232C59.8129 21.9947 60.0903 22.9827 60.0903 24.196ZM76.347 21.934C76.347 22.298 76.3036 22.6967 76.217 23.13H66.571C66.6576 24.7767 67.377 25.6 68.729 25.6C69.2316 25.6 69.6476 25.4787 69.977 25.236C70.3063 24.9933 70.5316 24.6727 70.653 24.274H76.061C75.8703 25.2967 75.4456 26.224 74.787 27.056C74.1283 27.8707 73.2963 28.512 72.291 28.98C71.2856 29.448 70.185 29.682 68.989 29.682C67.533 29.682 66.2416 29.3873 65.115 28.798C64.0056 28.1913 63.139 27.3247 62.515 26.198C61.891 25.054 61.579 23.7193 61.579 22.194C61.579 20.6687 61.891 19.3427 62.515 18.216C63.139 17.0893 64.0143 16.2313 65.141 15.642C66.2676 15.0353 67.5503 14.732 68.989 14.732C70.445 14.732 71.7276 15.0267 72.837 15.616C73.9463 16.2053 74.8043 17.046 75.411 18.138C76.035 19.23 76.347 20.4953 76.347 21.934ZM71.147 20.998C71.1643 20.2527 70.965 19.6893 70.549 19.308C70.133 18.9267 69.613 18.736 68.989 18.736C68.313 18.736 67.7583 18.9267 67.325 19.308C66.909 19.6893 66.6663 20.2527 66.597 20.998H71.147ZM100.167 14.914L96.5532 29.5H90.8332L88.6232 20.426L86.3612 29.5H80.6152L77.0532 14.914H82.1232L83.7092 24.664L85.9972 14.914H91.4312L93.8232 24.742L95.4352 14.914H100.167ZM106.969 14.732C107.992 14.732 108.876 14.9573 109.621 15.408C110.384 15.8413 110.947 16.448 111.311 17.228V14.914H116.407V29.5H111.311V27.186C110.947 27.966 110.384 28.5813 109.621 29.032C108.876 29.4653 107.992 29.682 106.969 29.682C105.808 29.682 104.759 29.3873 103.823 28.798C102.887 28.1913 102.151 27.3247 101.613 26.198C101.076 25.054 100.807 23.7193 100.807 22.194C100.807 20.6687 101.076 19.3427 101.613 18.216C102.151 17.0893 102.887 16.2313 103.823 15.642C104.759 15.0353 105.808 14.732 106.969 14.732ZM108.659 19.204C107.862 19.204 107.212 19.4727 106.709 20.01C106.224 20.53 105.981 21.258 105.981 22.194C105.981 23.1473 106.224 23.8927 106.709 24.43C107.212 24.95 107.862 25.21 108.659 25.21C109.422 25.21 110.055 24.9413 110.557 24.404C111.06 23.8667 111.311 23.13 111.311 22.194C111.311 21.2753 111.06 20.5473 110.557 20.01C110.055 19.4727 109.422 19.204 108.659 19.204Z" fill="black"/>
</svg>
