<svg width="101" height="22" viewBox="0 0 101 22" fill="none" xmlns="http://www.w3.org/2000/svg">
<g clip-path="url(#clip0_0_362)">
<path d="M35.7144 12.3028L35.1147 13.9917H35.0648C34.9648 13.6109 34.7816 13.0313 34.4817 12.3359L31.2667 4.30518H28.1183V17.1046H30.2006V9.20639C30.2006 8.70964 30.2006 8.14667 30.1839 7.45122C30.1672 7.1035 30.1339 6.83857 30.1173 6.63987H30.1672C30.2672 7.13662 30.3838 7.5009 30.4671 7.73271L34.3318 17.0715H35.7977L39.6291 7.64992C39.7124 7.43467 39.7957 7.00415 39.879 6.63987H39.9289C39.879 7.58369 39.8456 8.42815 39.829 8.94146V17.0549H42.0445V4.27206H39.0127L35.7144 12.3028ZM44.1435 7.88174H46.309V17.0549H44.1435V7.88174ZM45.2429 4.00713C44.8764 4.00713 44.5766 4.1396 44.3267 4.37141C44.0768 4.60322 43.9436 4.90127 43.9436 5.26555C43.9436 5.61327 44.0768 5.91132 44.3267 6.14313C44.5766 6.37494 44.8764 6.49085 45.2429 6.49085C45.6094 6.49085 45.9259 6.35839 46.1591 6.14313C46.409 5.91132 46.5422 5.61327 46.5422 5.26555C46.5422 4.91783 46.409 4.61978 46.1591 4.37141C45.9425 4.1396 45.626 4.00713 45.2429 4.00713ZM53.9885 7.79894C53.5887 7.71615 53.1722 7.66648 52.7724 7.66648C51.7896 7.66648 50.89 7.88174 50.1404 8.31225C49.3908 8.74276 48.7911 9.33885 48.408 10.084C48.0082 10.8456 47.8083 11.7232 47.8083 12.7333C47.8083 13.6109 48.0082 14.3891 48.3913 15.1011C48.7744 15.7965 49.3075 16.3595 50.0238 16.7403C50.7068 17.1212 51.5064 17.3199 52.4059 17.3199C53.4387 17.3199 54.3216 17.1046 55.0213 16.7072L55.0379 16.6907V14.7037L54.9546 14.7699C54.6381 15.0017 54.2716 15.2004 53.9052 15.3163C53.522 15.4488 53.1722 15.515 52.8724 15.515C52.0061 15.515 51.3231 15.2667 50.8401 14.7202C50.3403 14.1904 50.0904 13.4618 50.0904 12.5511C50.0904 11.6073 50.3403 10.8622 50.8567 10.3158C51.3731 9.76936 52.0561 9.48787 52.889 9.48787C53.5887 9.48787 54.305 9.71969 54.9546 10.1833L55.0379 10.2496V8.14667L55.0213 8.13011C54.7381 8.0142 54.4216 7.88174 53.9885 7.79894ZM61.1348 7.73271C60.6018 7.73271 60.102 7.89829 59.6689 8.24601C59.3024 8.54406 59.0525 8.97457 58.836 9.48787H58.8193V7.88174H56.6538V17.0549H58.8193V12.369C58.8193 11.5742 58.9859 10.9119 59.3524 10.4317C59.7189 9.93495 60.1853 9.68657 60.7517 9.68657C60.9516 9.68657 61.1515 9.73625 61.4013 9.76936C61.6346 9.8356 61.8011 9.90183 61.9178 9.98462L62.001 10.0509V7.89829L61.9511 7.88174C61.8011 7.78239 61.5013 7.73271 61.1348 7.73271ZM67.0318 7.68304C65.5159 7.68304 64.2999 8.13011 63.4503 9.00769C62.5841 9.88527 62.1676 11.094 62.1676 12.6174C62.1676 14.0414 62.6007 15.2004 63.4336 16.0449C64.2666 16.8728 65.3993 17.3033 66.8153 17.3033C68.2978 17.3033 69.4806 16.8562 70.3301 15.9621C71.1964 15.068 71.6128 13.8758 71.6128 12.4021C71.6128 10.945 71.213 9.78592 70.3968 8.94146C69.6138 8.09699 68.4644 7.68304 67.0318 7.68304ZM68.7643 14.7368C68.3645 15.2501 67.7315 15.4985 66.9485 15.4985C66.1656 15.4985 65.5326 15.2501 65.0828 14.7037C64.633 14.1904 64.4165 13.4453 64.4165 12.5015C64.4165 11.5245 64.6497 10.7794 65.0828 10.2496C65.5326 9.71969 66.1489 9.45476 66.9319 9.45476C67.6981 9.45476 68.2978 9.70313 68.7309 10.2164C69.1641 10.7297 69.3973 11.4749 69.3973 12.4518C69.364 13.4453 69.1807 14.2235 68.7643 14.7368ZM76.4437 11.6901C75.7607 11.4086 75.3276 11.1934 75.1277 11.0112C74.9611 10.8456 74.8778 10.6138 74.8778 10.3158C74.8778 10.0674 74.9778 9.81904 75.2276 9.65346C75.4775 9.48787 75.7607 9.40508 76.1772 9.40508C76.5436 9.40508 76.9268 9.47132 77.2933 9.57067C77.6597 9.67001 77.9929 9.81904 78.2594 10.0177L78.3427 10.084V8.06388L78.2928 8.04732C78.0429 7.94797 77.7097 7.84862 77.3099 7.76583C76.9101 7.6996 76.5436 7.66648 76.2438 7.66648C75.211 7.66648 74.3614 7.91485 73.6951 8.46127C73.0288 8.97457 72.7123 9.67001 72.7123 10.4814C72.7123 10.9119 72.7789 11.2927 72.9288 11.6073C73.0787 11.9219 73.2953 12.22 73.5951 12.4683C73.895 12.7002 74.3281 12.9651 74.9278 13.2135C75.4275 13.4287 75.8107 13.5943 76.0439 13.7268C76.2771 13.8592 76.427 14.0082 76.5436 14.1242C76.6269 14.2566 76.6769 14.4222 76.6769 14.6375C76.6769 15.2501 76.2105 15.5482 75.261 15.5482C74.8945 15.5482 74.5113 15.4819 74.0616 15.3329C73.6118 15.1839 73.1953 14.9686 72.8455 14.7202L72.7622 14.654V16.7569L72.8122 16.7735C73.1287 16.9225 73.5119 17.0218 73.9783 17.1377C74.4447 17.2205 74.8612 17.2868 75.2276 17.2868C76.3437 17.2868 77.2599 17.0384 77.9096 16.492C78.5759 15.9621 78.9258 15.2832 78.9258 14.4056C78.9258 13.793 78.7592 13.2466 78.3927 12.8326C77.9096 12.4352 77.3099 12.0213 76.4437 11.6901ZM84.6395 7.68304C83.1236 7.68304 81.9076 8.13011 81.058 9.00769C80.2084 9.88527 79.7753 11.094 79.7753 12.6174C79.7753 14.0414 80.2084 15.2004 81.0414 16.0449C81.8743 16.8728 83.007 17.3033 84.423 17.3033C85.9055 17.3033 87.0883 16.8562 87.9378 15.9621C88.8041 15.068 89.2205 13.8758 89.2205 12.4021C89.2205 10.945 88.8207 9.78592 88.0045 8.94146C87.2215 8.09699 86.0721 7.68304 84.6395 7.68304ZM86.3553 14.7368C85.9555 15.2501 85.3225 15.4985 84.5396 15.4985C83.74 15.4985 83.1236 15.2501 82.6739 14.7037C82.2241 14.1904 82.0075 13.4453 82.0075 12.5015C82.0075 11.5245 82.2407 10.7794 82.6739 10.2496C83.1236 9.71969 83.74 9.45476 84.5229 9.45476C85.2725 9.45476 85.8889 9.70313 86.322 10.2164C86.7551 10.7297 86.9883 11.4749 86.9883 12.4518C86.9883 13.4453 86.7718 14.2235 86.3553 14.7368ZM100.798 9.65346V7.88174H98.6157V5.1662L98.5491 5.18276L96.4835 5.79541L96.4335 5.81197V7.88174H93.1685V6.72267C93.1685 6.19281 93.3018 5.77885 93.535 5.51392C93.7682 5.24899 94.118 5.11653 94.5511 5.11653C94.851 5.11653 95.1675 5.18276 95.5173 5.33178L95.6006 5.38146V3.51039L95.5506 3.49383C95.2508 3.39448 94.851 3.32825 94.3346 3.32825C93.6849 3.32825 93.1185 3.47727 92.6021 3.72564C92.0857 4.00713 91.7026 4.38797 91.4194 4.90127C91.1362 5.39801 90.9863 5.96099 90.9863 6.60676V7.88174H89.4704V9.6369H90.9863V17.0549H93.1685V9.65346H96.4335V14.3725C96.4335 16.3098 97.3497 17.2868 99.1821 17.2868C99.482 17.2868 99.7985 17.2371 100.098 17.1874C100.415 17.1212 100.648 17.0384 100.781 16.9722L100.798 16.9556V15.1839L100.715 15.2501C100.581 15.3329 100.465 15.3991 100.265 15.4488C100.098 15.4985 99.9484 15.515 99.8318 15.515C99.3987 15.515 99.0988 15.4157 98.8823 15.1673C98.6824 14.9355 98.5824 14.5547 98.5824 13.9917V9.65346H100.798Z" fill="#737373"/>
<path d="M0.199158 0H10.4106V10.1501H0.199158V0Z" fill="#F25022"/>
<path d="M11.4768 0H21.6883V10.1501H11.4768V0Z" fill="#7FBA00"/>
<path d="M0.199158 11.2098H10.4106V21.36H0.199158V11.2098Z" fill="#00A4EF"/>
<path d="M11.4768 11.2098H21.6883V21.36H11.4768V11.2098Z" fill="#FFB900"/>
</g>
<defs>
<clipPath id="clip0_0_362">
<rect width="100.604" height="21.36" fill="white" transform="translate(0.196472)"/>
</clipPath>
</defs>
</svg>
