<svg width="102" height="17" viewBox="0 0 102 17" fill="none" xmlns="http://www.w3.org/2000/svg">
<g clip-path="url(#clip0_0_393)">
<path d="M5.58383 16.6322H0.744019V0.272601H9.11438L18.7169 12.486V0.272601H23.5567V16.6322H15.3559L5.58383 4.21032V16.6322ZM46.7134 11.5738C46.7134 13.8478 46.3091 14.6314 45.6389 15.3838C44.6119 16.5036 43.1186 16.84 40.2397 16.84H31.9762C29.0973 16.84 27.6021 16.5032 26.576 15.3838C25.9071 14.6321 25.5019 13.8478 25.5019 11.5738V5.26721C25.5019 2.99351 25.9071 2.21018 26.576 1.45717C27.6021 0.336443 29.0976 0 31.9762 0H40.24C43.1186 0 44.6122 0.336762 45.6389 1.45717C46.3088 2.20986 46.7134 2.99319 46.7134 5.26721V11.5738ZM40.0364 12.6945C41.1417 12.6945 41.5316 12.6303 41.7962 12.3906C42.0448 12.1665 42.1543 11.8783 42.1543 10.9171V5.92318C42.1543 4.96237 42.0448 4.67572 41.7962 4.45068C41.5316 4.21032 41.1417 4.1468 40.0364 4.1468H32.1789C31.0735 4.1468 30.684 4.21032 30.42 4.45068C30.1708 4.67572 30.062 4.96269 30.062 5.92318V10.9171C30.062 11.878 30.1705 12.1665 30.42 12.3906C30.684 12.6303 31.0735 12.6945 32.1789 12.6945H40.0364ZM53.7469 0.272601V16.6322H48.69V0.272601H53.7469ZM62.2907 0.272601H68.9667L59.9567 7.92491L70.1189 16.6322H62.975L53.7469 8.10016L62.2907 0.272601ZM71.0518 0.272601H76.1103V16.6322H71.0518V0.272601ZM95.3925 16.6322L93.896 13.7823H84.1098L82.6313 16.6322H77.0442L86.0087 0.272282H92.2949L101.259 16.6322H95.3925ZM85.867 10.2289H92.1555L89.0106 4.30608L85.867 10.2289Z" fill="#1C4598"/>
</g>
<defs>
<clipPath id="clip0_0_393">
<rect width="100.604" height="16.84" fill="white" transform="translate(0.699402)"/>
</clipPath>
</defs>
</svg>
