<svg width="101" height="34" viewBox="0 0 101 34" fill="none" xmlns="http://www.w3.org/2000/svg">
<g clip-path="url(#clip0_0_350)">
<path d="M100.738 7.90415C99.3699 0.0966066 75.7691 -2.33989 48.0221 2.46188C36.3693 4.47951 25.8474 7.4554 17.6534 10.8033C18.9121 10.8307 19.8456 11.1176 20.4128 11.6799C20.8562 12.1212 21.0802 12.7268 21.0802 13.4814V14.2559H18.3594V13.572C18.3594 13.0023 18.0157 12.6491 17.4069 12.6491C16.8953 12.6491 16.5801 12.8787 16.4784 13.331C16.4443 13.5098 16.4481 13.6936 16.4894 13.8709C16.7806 15.0538 20.8207 15.7884 21.2601 17.9714C21.3177 18.2523 21.3959 18.8534 21.2726 19.7136C21.0206 21.4742 19.4643 22.1536 17.4831 22.1536C14.7177 22.1536 13.5943 20.8517 13.5943 19.0567L13.5963 18.2075H16.513L16.5145 19.2653C16.5145 19.86 16.9494 20.1882 17.5417 20.1882C18.1029 20.1882 18.4306 19.9636 18.5438 19.5044C18.5964 19.2932 18.6195 18.9819 18.5238 18.7439C17.9841 17.3981 14.2116 16.7696 13.7471 14.5936C13.6434 14.1045 13.6349 13.6881 13.7211 13.1616C13.7653 12.9007 13.8466 12.6473 13.9626 12.4091C4.87372 16.6341 -0.443103 21.283 0.259392 25.2968C1.62881 33.1054 25.2291 35.5394 52.9756 30.7376C65.1726 28.6273 76.1379 25.4681 84.4832 21.928C84.3624 21.9339 84.2452 21.9469 84.1199 21.9469C82.2209 21.9469 80.5253 21.2396 80.3494 19.3102C80.3183 18.959 80.3128 18.8121 80.3118 18.6119L80.3128 14.1762C80.3128 13.9849 80.3354 13.6492 80.3569 13.4759C80.5819 11.6112 82.0651 10.8422 84.1209 10.8422C85.7118 10.8422 87.6625 11.2959 87.8769 13.4774C87.9055 13.7513 87.9025 14.0437 87.902 14.1398V14.5587H85.1541V13.9336C85.1541 13.9202 85.1501 13.6866 85.12 13.5407C85.075 13.318 84.8841 12.802 84.1014 12.802C83.3282 12.802 83.1278 13.319 83.0777 13.5412C83.0491 13.6632 83.0356 13.8385 83.0356 14.0327V18.8534C83.0331 19.0208 83.0416 19.1518 83.0587 19.2479C83.0722 19.3236 83.211 19.988 84.1109 19.988C85.0043 19.988 85.1426 19.3236 85.1551 19.2479C85.1787 19.1174 85.1817 18.962 85.1807 18.8534V17.3598H84.0994V15.751H87.923V18.6129C87.922 18.8076 87.919 18.9516 87.8859 19.3102C87.8398 19.8162 87.6795 20.2445 87.428 20.6106C96.2783 16.4334 101.431 11.8597 100.738 7.90415ZM28.7906 21.7417L27.3987 12.3403H27.3486L25.921 21.7417H22.9873L24.9605 11.1246H29.7472L31.7083 21.7417H28.7906ZM42.9017 21.7417L42.837 12.5221H42.7899L41.0638 21.7417H38.3104L36.5927 12.5221H36.5436L36.481 21.7417H33.7527L33.9892 11.1246H38.3775L39.6553 19.0113H39.7179L40.9991 11.1246H45.3855L45.621 21.7417H42.9017ZM55.7495 19.6842C55.4559 21.7407 53.4291 22.1003 51.9965 22.1003C49.618 22.1003 48.1468 21.0897 48.1468 19.0332L48.1483 18.1945H51.03L51.032 19.2394C51.032 19.8067 51.4343 20.1539 52.0557 20.1539C52.6098 20.1539 52.9345 19.9327 53.0473 19.4785C53.0994 19.2668 53.1209 18.958 53.0287 18.7249C52.4976 17.4046 48.7546 16.7576 48.2997 14.6155C48.1954 14.1299 48.1879 13.7175 48.2736 13.1965C48.5903 11.2546 50.4653 10.8512 51.9745 10.8512C53.3244 10.8512 54.307 11.144 54.8962 11.7297C55.3356 12.167 55.5581 12.7672 55.5581 13.5138V14.2798H52.8634V13.6039C52.8634 13.0252 52.5021 12.6905 51.9214 12.6905C51.4063 12.6905 51.0946 12.9181 50.9924 13.3658C50.9592 13.5428 50.9637 13.7246 51.0054 13.8998C51.294 15.0772 55.2986 15.7969 55.737 17.9594C55.7936 18.2354 55.8713 18.8275 55.7495 19.6842ZM65.7298 18.7195C65.7338 18.9187 65.7142 19.3166 65.7032 19.4187C65.5389 21.1679 64.2802 22.0569 61.9718 22.0569C59.6543 22.0569 58.3947 21.1679 58.2313 19.4187C58.2128 19.1868 58.2039 18.9542 58.2048 18.7215V11.1221H60.9616V18.961C60.9586 19.1363 60.9676 19.2658 60.9852 19.356C61.0192 19.5303 61.1936 20.0961 61.9718 20.0961C62.7474 20.0961 62.9218 19.5298 62.9584 19.358C62.9739 19.2653 62.9834 19.1294 62.9834 18.9605V11.1221H65.7298V18.7195ZM77.6076 21.6336H73.7714L71.1964 13.2239H71.1533L71.2961 21.6336H68.6224V11.1246H72.6194L74.9995 19.2031H75.0551L74.9143 11.1246H77.6076V21.6336Z" fill="#2D4F9E"/>
</g>
<defs>
<clipPath id="clip0_0_350">
<rect width="100.604" height="33.2" fill="white" transform="translate(0.196472)"/>
</clipPath>
</defs>
</svg>
