<svg width="102" height="28" viewBox="0 0 102 28" fill="none" xmlns="http://www.w3.org/2000/svg">
<g clip-path="url(#clip0_0_345)">
<path fill-rule="evenodd" clip-rule="evenodd" d="M79.6783 11.2111C80.6001 11.0343 86.9877 11.2111 88.4593 11.2111C89.884 11.1069 91.3159 11.1608 92.7285 11.3719C98.9544 12.9793 98.9059 22.6238 92.1625 23.8293C91.1599 24.0061 84.8855 23.8293 83.3654 23.8293C81.94 23.9241 80.5086 23.8648 79.0962 23.6525C78.2451 23.4034 77.4546 22.983 76.7739 22.4174C76.0933 21.8517 75.537 21.1529 75.1396 20.3644C74.7422 19.5759 74.5123 18.7146 74.464 17.834C74.4158 16.9535 74.5504 16.0724 74.8593 15.2457C75.2153 14.1926 75.8564 13.2573 76.7122 12.5427C77.5681 11.8281 78.6056 11.3618 79.7107 11.1951L79.6783 11.2111ZM101.202 18.7017C101.421 17.0048 101.212 15.2806 100.593 13.684C99.9753 12.0875 98.9675 10.6688 97.6607 9.5555C96.4217 8.51125 94.9452 7.78296 93.3592 7.43372C91.3109 7.17548 89.243 7.10553 87.1818 7.22476H80.7133C78.9146 7.1832 77.1398 7.63955 75.587 8.54283C74.1655 9.3997 72.9677 10.578 72.0909 11.982C71.2141 13.3859 70.6832 14.9758 70.5414 16.6222C70.3996 18.2687 70.6508 19.9251 71.2747 21.4568C71.8985 22.9885 72.8774 24.3521 74.1316 25.4367C77.3658 28.1854 80.5031 27.7835 84.5944 27.7835H91.0629C93.5932 27.8181 96.0434 26.9018 97.9233 25.2179C99.8032 23.5341 100.974 21.2068 101.202 18.7017ZM40.3013 10.0056C40.7118 10.9561 41.2563 11.8438 41.9185 12.6417L47.0124 20.068C47.9503 21.5307 49.244 23.6364 50.3437 25.0349C50.9455 25.9369 51.7699 26.6705 52.7381 27.1658C53.7063 27.6611 54.786 27.9014 55.8743 27.8639C56.9166 27.7749 57.9216 27.4358 58.8032 26.8759C59.6848 26.316 60.4166 25.5519 60.9359 24.6491C62.0355 23.0417 63.1513 21.4343 64.3156 19.6983L70.2667 10.9379C70.5285 10.601 70.6815 10.1931 70.7055 9.76808C70.7294 9.34302 70.6231 8.92074 70.4007 8.55692C70.1783 8.1931 69.8502 7.90483 69.4596 7.73014C69.069 7.55545 68.6344 7.50254 68.2129 7.57839C67.735 7.74994 67.2984 8.01866 66.9308 8.36738C66.5633 8.71611 66.2729 9.13719 66.0783 9.60373L62.6985 14.5867C61.5827 16.1941 60.4507 17.914 59.3187 19.5375C58.7366 20.3734 58.2191 21.1449 57.7016 22.0129C57.1841 22.8809 56.4726 23.9418 55.1951 23.6204C54.2788 23.175 53.5429 22.4321 53.109 21.5146L51.4918 19.0392C50.3599 17.4318 49.2764 15.8244 48.0959 14.0884C46.9154 12.3524 45.8966 10.8736 44.7161 9.13758C44.5283 8.62366 44.1735 8.18661 43.7078 7.89551C43.2422 7.60441 42.6922 7.47586 42.1449 7.53016C41.8561 7.56283 41.5772 7.6542 41.3255 7.7986C41.0738 7.943 40.8546 8.13733 40.6817 8.36952C40.5088 8.6017 40.3858 8.86677 40.3204 9.14823C40.2549 9.42969 40.2485 9.72152 40.3013 10.0056ZM0.730322 9.95736C1.12344 10.9167 1.66948 11.8068 2.34745 12.5935L9.1232 22.4952C10.7403 25.0027 12.3574 27.9925 16.2871 27.8639C19.8447 27.7353 21.3163 24.7777 23.1275 22.1094L28.2214 14.6831C28.7551 13.8794 29.3372 13.0757 29.9194 12.2077C30.6855 11.4416 31.1453 10.4247 31.2131 9.34654C31.1739 9.06702 31.0785 8.7982 30.9327 8.55603C30.7869 8.31387 30.5936 8.10331 30.3643 7.93687C30.135 7.77043 29.8744 7.6515 29.598 7.58716C29.3215 7.52282 29.0349 7.51437 28.7551 7.56231C28.2703 7.71516 27.8258 7.97332 27.4538 8.31806C27.0818 8.6628 26.7916 9.08549 26.6043 9.5555C25.4238 11.2754 24.3727 12.7864 23.2083 14.5867C22.044 16.387 20.9767 17.8015 19.8124 19.4089C19.2141 20.2609 18.7127 21.0163 18.1953 21.8843C18.0043 22.3803 17.6679 22.8079 17.2296 23.1117C16.7914 23.4154 16.2715 23.5815 15.7372 23.5882C14.7844 23.1784 14.0221 22.4265 13.6026 21.4825C10.805 17.5122 7.89418 13.1561 5.1289 9.08935C4.93713 8.58147 4.58384 8.14967 4.12268 7.85955C3.66153 7.56943 3.11771 7.43685 2.57384 7.48194C2.28508 7.51461 2.00617 7.60598 1.75446 7.75038C1.50275 7.89478 1.28362 8.08911 1.11071 8.3213C0.93779 8.55348 0.814788 8.81855 0.749348 9.10001C0.683909 9.38147 0.677432 9.6733 0.730322 9.95736ZM35.3368 7.57839C33.2669 8.01239 33.6065 9.76447 33.6065 11.9505V24.2312C33.4577 25.1533 33.5871 26.0986 33.9784 26.9477C34.2021 27.2736 34.5135 27.5304 34.8769 27.689C35.2404 27.8475 35.6413 27.9014 36.0341 27.8444C36.4269 27.7874 36.7956 27.6219 37.0983 27.3668C37.4011 27.1116 37.6256 26.777 37.7463 26.4012C37.9403 25.7582 37.8433 18.3641 37.8433 17.2872V11.1308C37.9882 10.2153 37.8647 9.27779 37.4876 8.43032C37.2618 8.09145 36.9401 7.82664 36.5631 7.6693C36.1861 7.51196 35.7706 7.46914 35.3691 7.54624L35.3368 7.57839ZM35.45 0.119998C35.1474 0.317619 34.8887 0.574726 34.6899 0.875481L33.0728 2.38645C32.1025 3.33482 32.9111 3.76882 34.1563 4.94223L34.9163 5.69772C35.9028 6.67824 36.2747 5.9549 37.5684 4.66897C39.3796 2.94904 39.3149 3.33482 36.5173 0.553999C36.4155 0.371799 36.2544 0.229513 36.0603 0.150613C35.8663 0.0717138 35.651 0.0609147 35.45 0.119998Z" fill="#0072B8"/>
</g>
<defs>
<clipPath id="clip0_0_345">
<rect width="100.604" height="27.76" fill="white" transform="translate(0.696472 0.119995)"/>
</clipPath>
</defs>
</svg>
